<svg width="138" height="30" viewBox="0 0 138 30" fill="none" xmlns="http://www.w3.org/2000/svg">
<g clip-path="url(#clip0_303_6509)">
<path d="M126.563 30H106.547C106.539 29.946 106.494 29.952 106.459 29.948C106.088 29.9019 105.724 29.8379 105.367 29.7198C103.547 29.1154 102.401 27.4543 102.304 25.6451C102.273 25.0427 102.345 24.4523 102.511 23.8739C102.875 22.5991 103.236 21.3222 103.596 20.0454C103.612 19.9933 103.624 19.9393 103.638 19.8852C103.647 19.8452 103.622 19.8232 103.59 19.8212C103.521 19.8152 103.451 19.8172 103.382 19.8172C101.288 19.8172 99.1916 19.8172 97.0976 19.8172C96.749 19.8172 96.8238 19.7672 96.7293 20.0994C95.9295 22.9233 95.1337 25.7492 94.3319 28.573C94.2275 28.9393 94.3221 28.8712 93.932 28.8712C80.1074 28.8712 66.2847 28.8712 52.46 28.8712C52.3911 28.8712 52.3202 28.8712 52.2512 28.8712C52.2217 28.8712 52.1921 28.8632 52.1507 28.8572C52.1941 28.6971 52.2354 28.547 52.2748 28.3949C52.2827 28.3629 52.3142 28.3229 52.2571 28.2869C52.2 28.3129 52.137 28.3429 52.0739 28.3709C51.7489 28.521 51.412 28.6391 51.0653 28.7251C50.6261 28.8332 50.1809 28.8732 49.7278 28.8712C43.6467 28.8692 37.5637 28.8712 31.4827 28.8712C31.3744 28.8712 31.266 28.8672 31.1577 28.8692C30.9469 28.8692 30.7381 28.8452 30.5332 28.8052C29.2646 28.569 28.2619 27.9206 27.5508 26.8199C27.5213 26.7758 27.5055 26.7178 27.4385 26.6938C27.3853 26.7558 27.3282 26.8179 27.2731 26.8819C26.7569 27.4703 26.1522 27.9426 25.4549 28.2909C24.6787 28.6791 23.8573 28.8712 22.9886 28.8712C16.8839 28.8672 10.7772 28.8692 4.67255 28.8692C4.57997 28.8692 4.48541 28.8692 4.39283 28.8672C3.70928 28.8472 3.05528 28.6911 2.45052 28.3629C1.05584 27.6044 0.281677 26.4116 0.090598 24.8225C0.0846883 24.7685 0.090598 24.7125 0.0590798 24.6624C0.039381 24.6304 0.0196821 24.6564 0.00195312 24.6624V24.002C0.021652 24.006 0.0452906 24.034 0.0590798 24.002C0.072869 23.966 0.0846883 23.9279 0.0866582 23.8899C0.112267 23.5437 0.187122 23.2055 0.281677 22.8732C0.724901 21.3102 1.16616 19.7472 1.60938 18.1841C1.72363 17.7838 1.84183 17.3856 1.9482 16.9833C1.99942 16.7892 2.02503 16.8212 2.17277 16.8212C2.35203 16.8212 2.52932 16.8212 2.70858 16.8212C2.75388 16.8212 2.80116 16.8332 2.84056 16.8012C2.84253 16.7852 2.85041 16.7692 2.84844 16.7552C2.83859 16.7091 2.8248 16.6631 2.81298 16.6191C2.67706 16.1388 2.60811 15.6504 2.62584 15.1501C2.6416 14.7158 2.71055 14.2915 2.82874 13.8732C3.58518 11.1995 4.33964 8.52567 5.09608 5.85189C5.24382 5.33154 5.39353 4.8112 5.5393 4.28885C5.9845 2.7098 6.93792 1.53902 8.32866 0.726475C8.92554 0.378242 9.56772 0.156094 10.2493 0.0560276C10.5507 0.0119983 10.8521 0.00999694 11.1535 0.00999694C16.2279 0.00999694 21.3004 0.00999694 26.3748 0.00999694C27.3834 0.00999694 28.392 0.00999694 29.4005 0.00999694C29.6724 0.00999694 29.9422 0.0160009 30.2121 0.058029C31.2877 0.230144 32.1879 0.722472 32.9089 1.55102C32.9483 1.59505 32.9739 1.6571 33.0369 1.67511C33.0744 1.62908 33.0842 1.57504 33.1 1.52301C33.2182 1.10673 33.3364 0.692452 33.4546 0.278176C33.5471 -0.0440391 33.488 0.0119983 33.8091 0.0119983C36.764 0.0119983 39.7208 0.0119983 42.6756 0.0119983C42.8391 0.0119983 43.0006 0.0160009 43.1641 0.0200036C43.4517 0.0240063 43.7354 0.0740396 44.0131 0.144086C44.9291 0.37424 45.6974 0.848556 46.3159 1.57304C46.3494 1.61307 46.3711 1.6711 46.444 1.6691C46.4637 1.60506 46.4854 1.53702 46.5031 1.47097C46.6154 1.0707 46.7237 0.668436 46.8419 0.27017C46.9286 -0.0220244 46.8518 0.0139996 47.1827 0.0139996C50.1533 0.0139996 53.1258 0.0139996 56.0964 0.0139996C56.2284 0.0139996 56.3604 0.0160009 56.4924 0.0200036C57.0577 0.0320116 57.5975 0.1641 58.1156 0.390251C58.7321 0.658429 59.2561 1.05269 59.6954 1.56704C59.7309 1.60906 59.7545 1.67911 59.8353 1.67711C59.8471 1.64309 59.8569 1.61507 59.8648 1.58505C59.9889 1.14675 60.113 0.708463 60.2371 0.27017C60.2857 0.100724 60.3993 0.0153338 60.5779 0.0139996C68.0103 0.0139996 75.4407 0.0139996 82.8731 0.0139996C83.0129 0.0139996 83.1528 0.0180023 83.2927 0.0200036C83.6512 0.0240063 84.0018 0.088049 84.3466 0.188116C85.1877 0.43428 85.8988 0.890584 86.474 1.56103C86.5134 1.60706 86.5351 1.67311 86.6178 1.68111C86.7478 1.2208 86.872 0.760497 87.0079 0.302192C87.1083 -0.0340324 87.0276 0.0200036 87.3723 0.0139996C87.3802 0.0139996 87.3881 0.0139996 87.3959 0.0139996C95.2696 0.0139996 103.143 0.0139996 111.019 0.0139996C111.082 0.0139996 111.143 0.0119983 111.204 0.0139996C111.247 0.0160009 111.297 -0.00201107 111.334 0.0480223C111.316 0.212132 111.23 0.366234 111.22 0.556361C111.297 0.52434 111.354 0.500324 111.409 0.476308C112.041 0.200124 112.697 0.028009 113.389 0.0139996C113.536 0.0119983 113.684 0.00799561 113.83 0.00799561C120.122 0.00799561 126.413 0.00799561 132.703 0.00799561C132.804 0.00799561 132.904 0.00799561 133.007 0.00799561C133.347 0.0139996 133.688 0.0360143 134.023 0.116068C135.451 0.452292 136.489 1.28485 137.126 2.62374C137.297 2.98598 137.429 3.36423 137.465 3.7685C137.468 3.81253 137.49 3.85256 137.504 3.89659V5.35956C137.476 5.37958 137.467 5.4076 137.465 5.43962C137.459 5.64575 137.403 5.84389 137.348 6.04002C137.053 7.09072 136.755 8.13942 136.458 9.19012C135.394 12.9506 134.33 16.7131 133.267 20.4736C132.782 22.1888 132.296 23.9019 131.815 25.6171C131.196 27.8245 129.386 29.3215 127.617 29.7839C127.3 29.8659 126.979 29.9139 126.656 29.956C126.62 29.96 126.577 29.954 126.563 30.006V30ZM74.5424 8.66977C74.4991 8.72581 74.4873 8.78785 74.4715 8.84789C73.7761 11.3095 73.0788 13.7712 72.3815 16.2328C72.3204 16.451 72.3401 16.4269 72.1352 16.4289C72.1195 16.4289 72.1037 16.4289 72.088 16.4289C70.7622 16.4289 69.4345 16.4289 68.1088 16.4289C67.7975 16.4289 67.8704 16.4329 67.9295 16.1748C67.9295 16.1668 67.9354 16.1608 67.9374 16.1528C68.7372 13.3209 69.537 10.489 70.3387 7.6571C70.4333 7.32287 70.3525 7.37491 70.7051 7.37491C74.9719 7.37491 79.2386 7.37491 83.5054 7.37491C83.5606 7.37491 83.6138 7.37491 83.6689 7.37491C83.8324 7.37891 83.8167 7.34689 83.8442 7.24282C84.0826 6.40426 84.3229 5.5677 84.5573 4.72914C84.6086 4.54702 84.6302 4.3589 84.6184 4.16877C84.5731 3.41026 84.0708 3.00199 83.5704 2.88992C83.3931 2.84989 83.2178 2.84789 83.0386 2.84789C76.3666 2.84789 69.6945 2.84789 63.0245 2.84789C62.9694 2.84789 62.9162 2.84789 62.861 2.84789C62.798 2.84789 62.7625 2.87391 62.7468 2.93795C62.6857 3.1661 62.6207 3.39225 62.5577 3.6184C61.6023 6.99465 60.6488 10.3689 59.6934 13.7452C59.1517 15.6624 58.61 17.5817 58.0683 19.501C58.0545 19.551 58.023 19.6011 58.0683 19.6631C58.1471 19.6631 58.2318 19.6631 58.3165 19.6631C61.6298 19.6631 64.9412 19.6631 68.2546 19.6631C68.3176 19.6631 68.3787 19.6631 68.4417 19.6631C68.5402 19.6671 68.5461 19.6691 68.5658 19.7652C68.6899 20.3576 68.814 20.948 68.9401 21.5404C69.1981 22.7632 69.4542 23.984 69.7123 25.2068C69.7793 25.529 69.728 25.481 70.0491 25.481C72.8345 25.481 75.62 25.481 78.4034 25.481C78.4665 25.481 78.5275 25.481 78.5906 25.481C78.6674 25.479 78.6851 25.459 78.6693 25.3789C78.6181 25.1167 78.563 24.8566 78.5078 24.5944C78.2695 23.4576 78.0291 22.3189 77.7888 21.1821C77.779 21.1361 77.775 21.0881 77.7632 21.042C77.7514 20.992 77.775 20.966 77.8184 20.96C77.8715 20.954 77.9267 20.956 77.9799 20.956C78.1513 20.954 78.3207 20.946 78.4881 20.9099C79.4396 20.7078 80.2866 19.8732 80.5407 18.9546C81.114 16.8812 81.7089 14.8159 82.2939 12.7465C82.6584 11.4556 83.0228 10.1628 83.3872 8.87191C83.405 8.80786 83.4404 8.74382 83.4069 8.66977H74.5424ZM17.8629 19.6431C17.9634 19.6751 18.0481 19.6611 18.1328 19.6611C20.9261 19.6611 23.7174 19.6611 26.5107 19.6611C26.558 19.6611 26.6033 19.6611 26.6506 19.6611C26.7766 19.6591 26.7786 19.6591 26.8121 19.541C26.8988 19.2388 26.9835 18.9366 27.0702 18.6344C27.5173 17.0554 27.9605 15.4783 28.4097 13.8993C28.4747 13.6691 28.5062 13.439 28.4944 13.2008C28.4629 12.5904 28.0807 12.1141 27.4976 11.954C27.3065 11.9019 27.1155 11.8999 26.9204 11.8999C23.2427 11.8999 19.5669 11.8999 15.8891 11.8999C15.7965 11.8999 15.7039 11.8999 15.6172 11.8999C15.5798 11.8039 15.6291 11.7318 15.6488 11.6598C16.023 10.3229 16.4013 8.98598 16.7814 7.64909C16.878 7.31086 16.807 7.37291 17.1498 7.37291C21.4166 7.37291 25.6834 7.37291 29.9501 7.37291C30.0191 7.37291 30.09 7.3709 30.1589 7.37291C30.2239 7.37691 30.2594 7.34489 30.2752 7.28485C30.283 7.25483 30.2929 7.22481 30.3027 7.19479C30.5293 6.39425 30.7538 5.59372 30.9804 4.79319C31.0395 4.58705 31.0611 4.37691 31.0533 4.16277C31.0277 3.53435 30.6297 3.04202 30.0289 2.89192C29.8457 2.84589 29.6606 2.84589 29.4754 2.84589C23.4239 2.84589 17.3744 2.84589 11.3229 2.84589C11.2303 2.84589 11.1357 2.84589 11.0432 2.84789C10.9742 2.84989 10.9033 2.85189 10.8344 2.8639C9.75486 3.04002 8.89008 3.93461 8.65172 4.82521C8.44094 5.61373 8.21047 6.39626 7.98984 7.18278C7.30629 9.60039 6.62471 12.016 5.93919 14.4316C5.87418 14.6618 5.84069 14.8919 5.85448 15.1301C5.88797 15.7365 6.25437 16.1968 6.83155 16.3649C7.03642 16.4229 7.24522 16.4289 7.45403 16.4289C11.116 16.4289 14.7781 16.4289 18.4381 16.4289C18.5012 16.4289 18.5622 16.4289 18.6253 16.4289C18.6686 16.4289 18.7198 16.4169 18.7513 16.483C18.6036 17.0013 18.4499 17.5277 18.3042 18.058C18.1584 18.5864 17.9988 19.1107 17.8629 19.6431ZM110.046 8.92594C110.124 8.96997 110.211 8.94796 110.294 8.94796C111.535 8.94796 112.776 8.94796 114.017 8.94796C116.84 8.94796 119.663 8.94796 122.486 8.94796C122.734 8.94796 122.704 8.95596 122.645 9.1661C122.373 10.1327 122.097 11.0994 121.822 12.066C121.731 12.3822 121.8 12.3402 121.473 12.3402C119.875 12.3402 118.278 12.3402 116.68 12.3402C116.619 12.3402 116.556 12.3402 116.495 12.3402C116.432 12.3402 116.395 12.3682 116.375 12.4283C116.334 12.5624 116.288 12.6985 116.245 12.8325C116.079 13.3409 115.91 13.8452 115.784 14.3656C115.674 14.8259 115.593 15.2882 115.617 15.7645C115.624 15.9226 115.65 16.0767 115.695 16.2288C115.819 16.6391 116.089 16.8953 116.493 17.0133C116.696 17.0714 116.905 17.0894 117.114 17.0914C119.3 17.0914 121.489 17.0914 123.675 17.0914C123.855 17.0914 124.032 17.0734 124.205 17.0353C124.599 16.9493 124.952 16.7772 125.273 16.533C125.777 16.1508 126.15 15.6664 126.327 15.046C126.752 13.551 127.172 12.054 127.595 10.559C127.682 10.2488 127.767 9.93862 127.863 9.63241C127.983 9.25416 128.247 9.03201 128.63 8.95996C128.712 8.94395 128.799 8.94996 128.886 8.94996C130.298 8.94996 131.709 8.94996 133.121 8.94996C133.19 8.94996 133.261 8.94996 133.33 8.94796C133.373 8.94796 133.403 8.92394 133.414 8.88191C133.45 8.76183 133.487 8.64175 133.521 8.51967C133.86 7.31887 134.196 6.11607 134.539 4.91527C134.6 4.70112 134.63 4.48498 134.624 4.26283C134.606 3.56837 134.169 3.03802 133.499 2.89192C133.322 2.85389 133.145 2.85189 132.967 2.85189C126.607 2.85189 120.248 2.85189 113.887 2.85189C113.832 2.85189 113.779 2.85189 113.723 2.85189C113.544 2.84789 113.369 2.87991 113.196 2.92394C112.26 3.1601 111.401 3.98865 111.145 4.92928C110.796 6.21013 110.426 7.48298 110.065 8.75983C110.05 8.81187 110.03 8.8639 110.048 8.92394L110.046 8.92594ZM132.977 10.3329C132.928 10.3009 132.873 10.3109 132.82 10.3109C131.787 10.3109 130.757 10.3109 129.725 10.3109C129.299 10.3109 128.949 10.575 128.813 10.9853C128.793 11.0454 128.777 11.1054 128.76 11.1654C128.354 12.6004 127.948 14.0373 127.542 15.4723C127.262 16.463 126.981 17.4516 126.703 18.4423C126.378 19.5991 125.157 20.5157 124.022 20.4796C123.045 20.4476 122.068 20.4736 121.091 20.4736C118.64 20.4736 116.188 20.4736 113.737 20.4736C113.645 20.4736 113.552 20.4897 113.448 20.4496C113.546 20.0153 113.696 19.5951 113.796 19.1608C113.733 19.1167 113.67 19.1307 113.611 19.1307C111.517 19.1307 109.423 19.1307 107.327 19.1307C107.13 19.1307 107.128 19.1307 107.075 19.3229C106.872 20.0414 106.669 20.7578 106.466 21.4763C106.179 22.497 105.893 23.5177 105.604 24.5364C105.543 24.7505 105.513 24.9666 105.521 25.1888C105.545 25.9053 106.057 26.4716 106.758 26.5617C106.927 26.5837 107.099 26.5877 107.268 26.5877C113.56 26.5877 119.85 26.5877 126.142 26.5877C126.211 26.5877 126.281 26.5917 126.35 26.5877C126.512 26.5757 126.677 26.5737 126.835 26.5397C127.944 26.2995 128.762 25.3849 128.994 24.5303C129.23 23.6598 129.485 22.7932 129.731 21.9226C130.46 19.3469 131.188 16.7692 131.915 14.1935C132.26 12.9766 132.603 11.7598 132.946 10.543C132.965 10.475 133.001 10.4109 132.975 10.3369L132.977 10.3329ZM83.1666 25.459C83.2749 25.495 83.3616 25.481 83.4444 25.481C86.2298 25.481 89.0132 25.481 91.7986 25.481C91.8893 25.481 91.9956 25.515 92.0705 25.457C92.1414 25.3989 92.1394 25.2868 92.1631 25.1968C92.9609 22.3729 93.7587 19.549 94.5584 16.7251C94.6569 16.3769 94.5801 16.4329 94.9406 16.4309C97.7181 16.4309 100.494 16.4309 103.271 16.4309C103.34 16.4309 103.411 16.4289 103.48 16.4309C103.533 16.4309 103.569 16.4109 103.584 16.3589C103.594 16.3289 103.602 16.2989 103.612 16.2688C103.841 15.4683 104.067 14.6698 104.294 13.8692C104.359 13.6411 104.384 13.4069 104.367 13.1688C104.321 12.5744 103.949 12.1201 103.384 11.962C103.192 11.9079 103.001 11.9059 102.806 11.9059C100.604 11.9059 98.3997 11.9059 96.1974 11.9059C96.1147 11.9059 96.03 11.9059 95.9433 11.9059C95.9334 11.7999 95.9728 11.7198 95.9945 11.6398C96.2565 10.7031 96.5224 9.7665 96.7884 8.82988C96.8337 8.66977 96.8317 8.66977 96.68 8.66777C96.6485 8.66777 96.6189 8.66777 96.5874 8.66777C93.7725 8.66777 90.9555 8.66777 88.1406 8.66777C88.1012 8.66777 88.0637 8.66777 88.0243 8.66777C87.9101 8.67177 87.9101 8.67177 87.8766 8.77384C87.8648 8.81187 87.853 8.84789 87.8431 8.88591C87.5457 9.93461 87.2502 10.9853 86.9527 12.034C85.7452 16.3069 84.5376 20.5817 83.3301 24.8546C83.2749 25.0507 83.2218 25.2468 83.1646 25.459H83.1666ZM31.2443 19.6431C31.3428 19.6751 31.4295 19.6611 31.5142 19.6611C34.2819 19.6611 37.0516 19.6611 39.8193 19.6611C39.9335 19.6611 40.0675 19.7091 40.1561 19.6331C40.2349 19.567 40.231 19.4309 40.2605 19.3269C41.2927 15.6804 42.323 12.034 43.3532 8.38758C43.6921 7.18678 44.0309 5.98598 44.3697 4.78518C44.4288 4.57904 44.4603 4.3709 44.4465 4.15676C44.4111 3.60039 44.1057 3.11006 43.501 2.91593C43.3217 2.8579 43.1365 2.84589 42.9494 2.84589C40.6998 2.84589 38.4522 2.84589 36.2025 2.84589C36.1336 2.84589 36.0627 2.83188 35.9839 2.8699C34.406 8.45363 32.8242 14.0474 31.2424 19.6411L31.2443 19.6431ZM53.5592 19.6431C53.5769 19.585 53.5986 19.527 53.6144 19.467C53.9256 18.3642 54.2369 17.2615 54.5481 16.1608C55.4582 12.9366 56.3702 9.71447 57.2803 6.49032C57.4438 5.90993 57.6073 5.32754 57.7689 4.74515C57.8339 4.509 57.8575 4.26684 57.8181 4.02267C57.7314 3.48631 57.4419 3.12207 56.9356 2.93595C56.7425 2.8659 56.5436 2.84789 56.3407 2.84789C54.0911 2.84789 51.8434 2.84789 49.5938 2.84789C49.5466 2.84789 49.5013 2.84989 49.454 2.84789C49.3968 2.84589 49.3712 2.87991 49.3555 2.92794C49.3437 2.96597 49.3358 3.00399 49.3259 3.04202C49.127 3.74449 48.928 4.44495 48.7291 5.14742C47.3876 9.89659 46.0461 14.6458 44.7046 19.3929C44.6809 19.475 44.6612 19.557 44.6376 19.6411C44.8425 19.6691 53.3622 19.6671 53.5553 19.6411L53.5592 19.6431ZM13.3794 19.6631C13.2691 19.6631 13.1903 19.6631 13.1135 19.6631C10.3143 19.6631 7.51313 19.6631 4.71392 19.6631C4.65876 19.6631 4.60558 19.6671 4.55042 19.6631C4.48541 19.6591 4.44996 19.6891 4.43223 19.7492C4.42632 19.7712 4.42238 19.7952 4.4145 19.8172C4.06386 21.056 3.71125 22.2929 3.36061 23.5317C3.29757 23.7538 3.2759 23.978 3.29166 24.2081C3.33106 24.8085 3.71125 25.2708 4.28842 25.4289C4.46375 25.477 4.64103 25.481 4.81832 25.481C10.9151 25.481 17.0099 25.481 23.1067 25.481C23.2072 25.481 23.3077 25.477 23.4081 25.471C23.4692 25.467 23.5322 25.459 23.5933 25.447C24.5822 25.2528 25.447 24.4163 25.6952 23.4856C25.8941 22.7432 26.1148 22.0067 26.3196 21.2662C26.3452 21.1721 26.4102 21.08 26.3728 20.974C26.2822 20.938 26.1896 20.958 26.099 20.958C21.848 20.958 17.5989 20.958 13.3479 20.958C13.279 20.958 13.2081 20.958 13.1391 20.958C13.1037 20.958 13.0603 20.964 13.0387 20.9059C13.1411 20.5057 13.275 20.1034 13.3794 19.6651V19.6631ZM30.8779 20.976C30.8681 21 30.8563 21.03 30.8484 21.058C30.6081 21.9026 30.3658 22.7492 30.1294 23.5937C30.0762 23.7838 30.0565 23.98 30.0703 24.1781C30.1136 24.8365 30.5253 25.2808 31.0671 25.4249C31.266 25.479 31.465 25.479 31.6679 25.479C37.7115 25.479 43.7531 25.479 49.7967 25.479C49.8814 25.479 49.9681 25.483 50.0528 25.479C50.1612 25.473 50.2715 25.469 50.3759 25.449C51.4219 25.2448 52.2453 24.3602 52.4699 23.5117C52.6728 22.7452 52.8973 21.9846 53.116 21.2241C53.2007 20.9319 53.2007 20.958 52.9229 20.958C45.6541 20.958 38.3852 20.958 31.1163 20.958C31.0395 20.958 30.9607 20.946 30.8799 20.976H30.8779ZM101.662 7.37691C101.552 7.76717 101.451 8.1214 101.353 8.47564C101.337 8.53168 101.303 8.58972 101.343 8.66377C101.386 8.66377 101.431 8.66377 101.477 8.66377C102.842 8.66377 104.207 8.66377 105.57 8.66377C105.602 8.66377 105.633 8.66377 105.663 8.66377C105.751 8.65976 105.761 8.65376 105.791 8.5597C105.805 8.51567 105.818 8.46964 105.83 8.42361C106.159 7.26884 106.49 6.11607 106.819 4.9613C106.906 4.6591 106.998 4.3589 107.071 4.05469C107.229 3.40426 106.894 2.96997 106.311 2.8619C106.199 2.84189 106.078 2.84789 105.962 2.84789C100.573 2.84789 95.1849 2.84789 89.7953 2.84789C89.7184 2.84789 89.6416 2.84789 89.551 2.84789C89.1314 4.32888 88.7158 5.79986 88.3001 7.27084C88.2922 7.29886 88.3001 7.33088 88.3001 7.37691H101.658H101.662ZM56.3939 25.461C56.4825 25.495 56.5692 25.479 56.6519 25.479C59.4511 25.479 62.2484 25.479 65.0476 25.479C65.1027 25.479 65.1559 25.477 65.2111 25.479C65.2761 25.483 65.3116 25.453 65.3273 25.3909C65.3372 25.3529 65.347 25.3149 65.3588 25.2768C65.5716 24.5303 65.7843 23.7838 65.9951 23.0374C66.1783 22.3889 66.3615 21.7385 66.5447 21.0901C66.5782 20.97 66.5683 20.958 66.4403 20.956C66.393 20.956 66.3477 20.956 66.3004 20.956C63.5012 20.956 60.704 20.956 57.9048 20.956C57.5935 20.956 57.6625 20.9299 57.5837 21.2061C57.1996 22.549 56.8233 23.8919 56.4431 25.2348C56.4215 25.3089 56.3939 25.3809 56.3939 25.461Z" fill="#191919"/>
<path d="M74.5424 8.66979H83.4069C83.4404 8.74384 83.4069 8.80788 83.3872 8.87192C83.0228 10.1628 82.6583 11.4556 82.2939 12.7465C81.7088 14.8159 81.1139 16.8813 80.5407 18.9546C80.2866 19.8733 79.4395 20.7078 78.4881 20.91C78.3206 20.946 78.1493 20.954 77.9798 20.956C77.9247 20.956 77.8715 20.956 77.8183 20.96C77.777 20.966 77.7513 20.992 77.7632 21.042C77.773 21.0881 77.7789 21.1341 77.7888 21.1821C78.0271 22.3189 78.2675 23.4576 78.5078 24.5944C78.5629 24.8566 78.6181 25.1168 78.6693 25.3789C78.6851 25.459 78.6673 25.477 78.5905 25.481C78.5294 25.481 78.4664 25.481 78.4034 25.481C75.618 25.481 72.8325 25.481 70.0491 25.481C69.726 25.481 69.7792 25.529 69.7122 25.2068C69.4562 23.984 69.1981 22.7632 68.94 21.5404C68.8159 20.948 68.6918 20.3576 68.5658 19.7652C68.5461 19.6691 68.5402 19.6671 68.4417 19.6631C68.3806 19.6631 68.3176 19.6631 68.2545 19.6631C64.9412 19.6631 61.6298 19.6631 58.3164 19.6631C58.2317 19.6631 58.147 19.6631 58.0682 19.6631C58.0229 19.5991 58.0545 19.549 58.0682 19.501C58.61 17.5817 59.1517 15.6645 59.6934 13.7452C60.6488 10.3689 61.6022 6.99467 62.5576 3.61842C62.6226 3.39227 62.6876 3.16612 62.7467 2.93797C62.7645 2.87393 62.7979 2.84591 62.861 2.84791C62.9161 2.84791 62.9693 2.84791 63.0245 2.84791C69.6965 2.84791 76.3685 2.84791 83.0385 2.84791C83.2158 2.84791 83.3931 2.84991 83.5704 2.88994C84.0707 3.00201 84.5731 3.41028 84.6184 4.16879C84.6302 4.35892 84.6085 4.54704 84.5573 4.72916C84.3229 5.56772 84.0806 6.40428 83.8442 7.24284C83.8147 7.34691 83.8304 7.37693 83.6689 7.37493C83.6137 7.37493 83.5605 7.37493 83.5054 7.37493C79.2386 7.37493 74.9718 7.37493 70.7051 7.37493C70.3524 7.37493 70.4332 7.32289 70.3387 7.65711C69.5349 10.489 68.7371 13.3209 67.9374 16.1528C67.9354 16.1608 67.9315 16.1668 67.9295 16.1748C67.8704 16.431 67.7975 16.429 68.1088 16.429C69.4345 16.429 70.7622 16.429 72.0879 16.429C72.1037 16.429 72.1194 16.429 72.1352 16.429C72.3401 16.427 72.3184 16.451 72.3814 16.2328C73.0788 13.7712 73.7741 11.3095 74.4715 8.84791C74.4892 8.78787 74.4991 8.72583 74.5424 8.66979Z" fill="white"/>
<path d="M17.8629 19.6431C17.9989 19.1107 18.1584 18.5864 18.3042 18.058C18.45 17.5297 18.6036 17.0013 18.7513 16.483C18.7198 16.4149 18.6686 16.4309 18.6253 16.4289C18.5642 16.4269 18.5012 16.4289 18.4381 16.4289C14.7761 16.4289 11.1141 16.4289 7.45405 16.4289C7.24525 16.4289 7.03644 16.4249 6.83157 16.3649C6.25439 16.1988 5.888 15.7385 5.85451 15.1301C5.84072 14.8919 5.87421 14.6618 5.93921 14.4316C6.62473 12.016 7.30631 9.59839 7.98986 7.18278C8.21246 6.39825 8.44294 5.61373 8.65174 4.82521C8.88813 3.93461 9.75488 3.04002 10.8344 2.8639C10.9033 2.85189 10.9742 2.84989 11.0432 2.84789C11.1358 2.84589 11.2284 2.84589 11.3229 2.84589C17.3744 2.84589 23.4239 2.84589 29.4754 2.84589C29.6606 2.84589 29.8457 2.84589 30.0289 2.89192C30.6298 3.04202 31.0296 3.53434 31.0533 4.16276C31.0612 4.37691 31.0395 4.58505 30.9804 4.79318C30.7539 5.59372 30.5273 6.39425 30.3028 7.19479C30.2949 7.22481 30.2831 7.25483 30.2752 7.28485C30.2594 7.34489 30.224 7.37691 30.159 7.3729C30.09 7.3689 30.0191 7.3729 29.9501 7.3729C25.6834 7.3729 21.4166 7.3729 17.1498 7.3729C16.8051 7.3729 16.876 7.31286 16.7815 7.64909C16.4013 8.98598 16.0231 10.3229 15.6488 11.6598C15.6291 11.7318 15.5779 11.8039 15.6173 11.8999C15.7059 11.8999 15.7985 11.8999 15.8891 11.8999C19.5669 11.8999 23.2427 11.8999 26.9205 11.8999C27.1135 11.8999 27.3066 11.8999 27.4976 11.954C28.0807 12.1141 28.4629 12.5904 28.4944 13.2008C28.5062 13.4389 28.4747 13.6691 28.4097 13.8993C27.9606 15.4763 27.5154 17.0554 27.0702 18.6344C26.9855 18.9366 26.8988 19.2388 26.8121 19.541C26.7786 19.6571 26.7767 19.6571 26.6506 19.6611C26.6033 19.6611 26.558 19.6611 26.5107 19.6611C23.7174 19.6611 20.9261 19.6611 18.1328 19.6611C18.0481 19.6611 17.9634 19.6751 17.8629 19.6431Z" fill="white"/>
<path d="M110.046 8.92596C110.028 8.86592 110.048 8.81389 110.063 8.76185C110.424 7.485 110.794 6.21015 111.143 4.9313C111.399 3.99067 112.26 3.16212 113.194 2.92596C113.367 2.88193 113.542 2.84991 113.721 2.85391C113.777 2.85391 113.83 2.85391 113.885 2.85391C120.246 2.85391 126.605 2.85391 132.965 2.85391C133.145 2.85391 133.32 2.85391 133.497 2.89394C134.169 3.04204 134.604 3.57039 134.622 4.26486C134.628 4.487 134.598 4.70315 134.537 4.91729C134.196 6.11809 133.86 7.31889 133.519 8.52169C133.485 8.64177 133.448 8.76185 133.412 8.88393C133.401 8.92596 133.373 8.94998 133.328 8.94998C133.259 8.94998 133.188 8.95198 133.119 8.95198C131.707 8.95198 130.296 8.95198 128.884 8.95198C128.799 8.95198 128.712 8.94598 128.628 8.96199C128.245 9.03403 127.982 9.25618 127.861 9.63444C127.763 9.94064 127.68 10.2528 127.593 10.5611C127.17 12.0561 126.75 13.553 126.325 15.048C126.148 15.6685 125.777 16.1528 125.271 16.535C124.95 16.7772 124.597 16.9513 124.203 17.0374C124.028 17.0754 123.851 17.0934 123.673 17.0934C121.487 17.0934 119.298 17.0934 117.112 17.0934C116.903 17.0934 116.694 17.0754 116.491 17.0154C116.087 16.8993 115.817 16.6411 115.693 16.2308C115.648 16.0807 115.622 15.9266 115.615 15.7665C115.591 15.2902 115.67 14.8259 115.782 14.3676C115.908 13.8472 116.077 13.3429 116.243 12.8346C116.286 12.7005 116.33 12.5664 116.373 12.4303C116.393 12.3703 116.43 12.3402 116.493 12.3422C116.554 12.3422 116.617 12.3422 116.678 12.3422C118.276 12.3422 119.873 12.3422 121.471 12.3422C121.8 12.3422 121.731 12.3823 121.82 12.0681C122.095 11.1014 122.369 10.1348 122.643 9.16812C122.702 8.95798 122.732 8.94998 122.484 8.94998C119.661 8.94998 116.838 8.94998 114.015 8.94998C112.774 8.94998 111.533 8.94998 110.292 8.94998C110.209 8.94998 110.123 8.96999 110.044 8.92796L110.046 8.92596Z" fill="#EE0000"/>
<path d="M132.977 10.3329C133.003 10.4069 132.967 10.473 132.948 10.539C132.605 11.7558 132.262 12.9726 131.917 14.1895C131.188 16.7652 130.46 19.3429 129.733 21.9186C129.487 22.7872 129.232 23.6538 128.996 24.5264C128.766 25.3809 127.948 26.2975 126.837 26.5357C126.679 26.5697 126.514 26.5717 126.352 26.5837C126.283 26.5897 126.213 26.5837 126.144 26.5837C119.852 26.5837 113.562 26.5837 107.27 26.5837C107.099 26.5837 106.929 26.5777 106.76 26.5577C106.057 26.4696 105.546 25.9013 105.523 25.1848C105.515 24.9626 105.545 24.7465 105.606 24.5324C105.895 23.5117 106.181 22.493 106.468 21.4723C106.671 20.7538 106.874 20.0374 107.077 19.3189C107.13 19.1288 107.132 19.1267 107.329 19.1267C109.423 19.1267 111.517 19.1267 113.613 19.1267C113.672 19.1267 113.737 19.1147 113.798 19.1568C113.7 19.5911 113.55 20.0113 113.45 20.4456C113.554 20.4857 113.649 20.4696 113.739 20.4696C116.19 20.4696 118.642 20.4696 121.093 20.4696C122.07 20.4696 123.049 20.4456 124.024 20.4756C125.159 20.5117 126.378 19.5951 126.705 18.4383C126.983 17.4476 127.264 16.459 127.544 15.4683C127.95 14.0334 128.356 12.5964 128.762 11.1614C128.779 11.1014 128.795 11.0394 128.815 10.9813C128.951 10.569 129.299 10.3069 129.727 10.3069C130.759 10.3049 131.789 10.3069 132.822 10.3069C132.875 10.3069 132.93 10.2969 132.979 10.3289L132.977 10.3329Z" fill="#EE0000"/>
<path d="M83.1686 25.457C83.2257 25.2448 83.2789 25.0487 83.334 24.8526C84.5416 20.5777 85.7491 16.3049 86.9567 12.032C87.2541 10.9833 87.5496 9.93262 87.8471 8.88392C87.8569 8.84589 87.8687 8.80787 87.8805 8.77184C87.9121 8.66977 87.914 8.66777 88.0283 8.66577C88.0677 8.66577 88.1051 8.66577 88.1445 8.66577C90.9595 8.66577 93.7764 8.66577 96.5914 8.66577C96.6229 8.66577 96.6544 8.66577 96.684 8.66577C96.8356 8.66777 96.8376 8.66777 96.7923 8.82788C96.5283 9.7645 96.2624 10.7011 95.9984 11.6378C95.9748 11.7178 95.9374 11.7979 95.9472 11.9039C96.0359 11.9039 96.1186 11.9039 96.2013 11.9039C98.4037 11.9039 100.608 11.9039 102.81 11.9039C103.003 11.9039 103.196 11.9059 103.387 11.96C103.951 12.1181 104.323 12.5744 104.37 13.1668C104.388 13.4049 104.363 13.6371 104.298 13.8672C104.071 14.6678 103.843 15.4663 103.616 16.2668C103.608 16.2969 103.598 16.3269 103.588 16.3569C103.573 16.4089 103.535 16.4289 103.484 16.4289C103.415 16.4289 103.344 16.4289 103.275 16.4289C100.498 16.4289 97.7221 16.4289 94.9446 16.4289C94.5841 16.4289 94.6609 16.3749 94.5624 16.7231C93.7626 19.547 92.9668 22.3709 92.167 25.1948C92.1414 25.2849 92.1453 25.3949 92.0744 25.455C92.0015 25.515 91.8952 25.479 91.8026 25.479C89.0172 25.479 86.2337 25.479 83.4483 25.479C83.3636 25.479 83.2789 25.493 83.1705 25.457H83.1686Z" fill="white"/>
<path d="M31.2463 19.6431C32.8282 14.0494 34.408 8.45564 35.9879 2.87192C36.0666 2.83589 36.1376 2.8479 36.2065 2.8479C38.4561 2.8479 40.7038 2.8479 42.9534 2.8479C43.1405 2.8479 43.3257 2.85991 43.5049 2.91795C44.1097 3.11208 44.4131 3.6024 44.4505 4.15877C44.4643 4.37292 44.4328 4.58105 44.3737 4.78719C44.0348 5.98799 43.696 7.18879 43.3572 8.38959C42.3269 12.036 41.2967 15.6825 40.2645 19.3289C40.2349 19.435 40.2389 19.569 40.1601 19.6351C40.0714 19.7091 39.9375 19.6611 39.8232 19.6631C37.0555 19.6631 34.2859 19.6631 31.5182 19.6631C31.4335 19.6631 31.3488 19.6771 31.2483 19.6451L31.2463 19.6431Z" fill="white"/>
<path d="M53.5612 19.6431C53.3682 19.6691 44.8484 19.6711 44.6436 19.6431C44.6652 19.559 44.6869 19.477 44.7105 19.3949C46.052 14.6458 47.3935 9.89661 48.735 5.14944C48.934 4.44697 49.1329 3.7465 49.3319 3.04404C49.3417 3.00601 49.3496 2.96799 49.3614 2.92996C49.3772 2.88193 49.4028 2.84791 49.4599 2.84991C49.5072 2.85191 49.5525 2.84991 49.5998 2.84991C51.8494 2.84991 54.097 2.84991 56.3466 2.84991C56.5495 2.84991 56.7485 2.86592 56.9416 2.93797C57.4478 3.12409 57.7374 3.48833 57.8241 4.02469C57.8635 4.27085 57.8398 4.51101 57.7748 4.74717C57.6133 5.32956 57.4498 5.91195 57.2863 6.49234C56.3762 9.71649 55.4641 12.9386 54.554 16.1628C54.2428 17.2655 53.9316 18.3683 53.6203 19.469C53.6026 19.529 53.5829 19.5871 53.5652 19.6451L53.5612 19.6431Z" fill="white"/>
<path d="M13.3814 19.6631C13.277 20.1034 13.145 20.5037 13.0406 20.9039C13.0623 20.962 13.1056 20.954 13.1411 20.956C13.21 20.956 13.2809 20.956 13.3499 20.956C17.6009 20.956 21.8499 20.956 26.101 20.956C26.1916 20.956 26.2861 20.938 26.3748 20.972C26.4102 21.0801 26.3472 21.1701 26.3216 21.2642C26.1147 22.0047 25.8941 22.7412 25.6971 23.4837C25.4489 24.4143 24.5841 25.2508 23.5953 25.445C23.5342 25.457 23.4731 25.465 23.4101 25.469C23.3096 25.475 23.2092 25.479 23.1087 25.479C17.0119 25.479 10.9171 25.479 4.82028 25.479C4.64102 25.479 4.46571 25.475 4.29039 25.427C3.71518 25.2709 3.33499 24.8085 3.29362 24.2061C3.27786 23.976 3.3015 23.7498 3.36257 23.5297C3.71321 22.2909 4.06385 21.054 4.41646 19.8152C4.42237 19.7932 4.42631 19.7692 4.43419 19.7472C4.45192 19.6871 4.48737 19.6551 4.55238 19.6611C4.60557 19.6651 4.66072 19.6611 4.71588 19.6611C7.51509 19.6611 10.3163 19.6611 13.1155 19.6611C13.1923 19.6611 13.2691 19.6611 13.3814 19.6611V19.6631Z" fill="white"/>
<path d="M30.8799 20.976C30.9627 20.944 31.0395 20.958 31.1163 20.958C38.3852 20.958 45.6541 20.958 52.9229 20.958C53.2007 20.958 53.2007 20.932 53.116 21.2242C52.8973 21.9867 52.6728 22.7472 52.4699 23.5117C52.2453 24.3602 51.4199 25.2448 50.3759 25.449C50.2695 25.469 50.1612 25.473 50.0528 25.479C49.9681 25.483 49.8814 25.479 49.7967 25.479C43.7531 25.479 37.7115 25.479 31.6679 25.479C31.4669 25.479 31.266 25.479 31.0671 25.425C30.5253 25.2809 30.1136 24.8366 30.0703 24.1781C30.0565 23.98 30.0762 23.7839 30.1294 23.5937C30.3678 22.7472 30.6081 21.9026 30.8484 21.058C30.8563 21.028 30.8701 21 30.878 20.976H30.8799Z" fill="white"/>
<path d="M101.664 7.37691H88.306C88.306 7.33088 88.2981 7.29886 88.306 7.27084C88.7216 5.79986 89.1373 4.32888 89.5569 2.84789C89.6475 2.84789 89.7243 2.84789 89.8011 2.84789C95.1907 2.84789 100.578 2.84789 105.968 2.84789C106.084 2.84789 106.202 2.84189 106.317 2.8619C106.9 2.96997 107.235 3.40426 107.077 4.05469C107.004 4.3589 106.91 4.6591 106.825 4.9613C106.496 6.11607 106.167 7.26884 105.836 8.42361C105.822 8.46964 105.81 8.51367 105.797 8.5597C105.767 8.65376 105.759 8.65977 105.669 8.66377C105.637 8.66377 105.608 8.66377 105.576 8.66377C104.211 8.66377 102.846 8.66377 101.483 8.66377C101.437 8.66377 101.39 8.66377 101.349 8.66377C101.309 8.58972 101.343 8.53368 101.358 8.47564C101.457 8.12141 101.557 7.76717 101.668 7.37691H101.664Z" fill="white"/>
<path d="M56.3959 25.461C56.3959 25.3809 56.4235 25.3089 56.4451 25.2348C56.8253 23.8919 57.2016 22.547 57.5857 21.2061C57.6645 20.93 57.5955 20.956 57.9068 20.956C60.706 20.956 63.5032 20.956 66.3024 20.956C66.3497 20.956 66.395 20.956 66.4423 20.956C66.5703 20.958 66.5802 20.972 66.5467 21.0901C66.3635 21.7385 66.1803 22.3889 65.9971 23.0374C65.7844 23.7839 65.5716 24.5304 65.3608 25.2769C65.351 25.3149 65.3392 25.3529 65.3293 25.3909C65.3135 25.453 65.2781 25.483 65.2131 25.479C65.1599 25.475 65.1047 25.479 65.0496 25.479C62.2504 25.479 59.4531 25.479 56.6539 25.479C56.5692 25.479 56.4845 25.495 56.3959 25.461Z" fill="white"/>
</g>
<defs>
<clipPath id="clip0_303_6509">
<rect width="137.5" height="30" fill="white"/>
</clipPath>
</defs>
</svg>
